<?xml version="1.0" encoding="UTF-8"?> <svg xmlns="http://www.w3.org/2000/svg" width="205" height="159" viewBox="0 0 205 159" fill="none"> <g clip-path="url(#clip0_1646_5572)"> <path d="M229.98 57.0992L229.98 57.0976L230.065 25.3208L113.128 41.8439L116.221 76.0754L207.517 78.8502L207.52 78.8504C219.771 79.2787 229.973 69.4121 229.98 57.0992Z" fill="#E4E7ED" stroke="black" stroke-width="1.5"></path> <path d="M80.6692 77.2903L80.6746 77.2903L112.797 76.838C112.798 76.838 112.799 76.838 112.8 76.838C115.617 76.7767 117.932 74.4807 117.936 71.7095C117.936 71.7093 117.936 71.7092 117.936 71.709L117.946 50.8133L117.946 50.8126C117.949 48.0348 115.669 45.7876 112.882 45.8468L112.877 45.8469L80.7546 46.2991C80.7537 46.2991 80.7529 46.2991 80.752 46.2992C77.934 46.3604 75.619 48.6567 75.6153 51.4281L75.6059 72.3239L75.6059 72.3246C75.6022 75.1024 77.8823 77.3495 80.6692 77.2903Z" fill="#FBA993" stroke="black" stroke-width="1.5"></path> <path d="M73.5338 368.133L96.7097 400.489L118.7 367.35L113.961 83.0921L68.7943 83.8752L73.5338 368.133Z" fill="#E4E7ED" stroke="black" stroke-width="1.5"></path> <path d="M140.256 76.9771L42.7379 78.6685C42.6657 78.6698 42.6083 78.7293 42.6095 78.8014L42.7177 85.0384C42.719 85.1105 42.7785 85.168 42.8506 85.1668L140.368 83.4753C140.44 83.4741 140.498 83.4146 140.497 83.3424L140.388 77.1054C140.387 77.0333 140.328 76.9758 140.256 76.9771Z" fill="#E4E7ED" stroke="black" stroke-width="1.5"></path> <path d="M91.2094 77.9803L90.3594 29.4041" stroke="black" stroke-width="12"></path> <path d="M100.557 19.3356L93.6581 12.6396C91.3669 10.4157 87.7067 10.4701 85.4827 12.7613L78.7867 19.6597C76.5627 21.9509 76.6172 25.6112 78.9084 27.8351L85.8068 34.5312C88.098 36.7551 91.7583 36.7006 93.9822 34.4094L100.678 27.511C102.902 25.2198 102.848 21.5596 100.557 19.3356Z" fill="#E4E7ED" stroke="black" stroke-width="1.5"></path> <path d="M69.3206 72.9027C69.2604 75.3361 71.2494 77.3304 73.7391 77.3952L85.9944 77.4824C88.4908 77.4746 90.5214 75.5277 90.5821 73.0707C90.6422 70.6373 88.6532 68.643 86.1636 68.5782L73.9082 68.491C71.4119 68.4988 69.3813 70.4457 69.3206 72.9027Z" fill="#FBA993" stroke="black" stroke-width="1.5"></path> <path d="M68.5823 63.7116C68.5222 66.145 70.5112 68.1393 73.0008 68.2041L85.2561 68.2913C87.7524 68.2834 89.7831 66.3366 89.8438 63.8795C89.9039 61.4462 87.9149 59.4519 85.4253 59.3871L73.1699 59.2999C70.6736 59.3077 68.643 61.2546 68.5823 63.7116Z" fill="#FBA993" stroke="black" stroke-width="1.5"></path> <path d="M67.5959 54.5602C67.5358 56.9935 69.5248 58.9878 72.0144 59.0527L84.2698 59.1399C86.7661 59.132 88.7967 57.1852 88.8575 54.7281C88.9176 52.2948 86.9286 50.3005 84.439 50.2357L72.1836 50.1484C69.6873 50.1563 67.6566 52.1032 67.5959 54.5602Z" fill="#FBA993" stroke="black" stroke-width="1.5"></path> <path d="M69.7482 45.3623C69.6881 47.7956 71.6771 49.7899 74.1668 49.8547L86.4221 49.9419C88.9185 49.9341 90.9491 47.9872 91.0098 45.5301C91.0699 43.0968 89.081 41.1025 86.5913 41.0377L74.336 40.9505C71.8396 40.9584 69.809 42.9052 69.7482 45.3623Z" fill="#FBA993" stroke="black" stroke-width="1.5"></path> <mask id="path-11-inside-1_1646_5572" fill="white"> <path fill-rule="evenodd" clip-rule="evenodd" d="M99.0948 46.7042L104.345 51.2212C107.803 54.1687 115.622 53.6556 118.642 50.2097C118.638 49.9865 118.635 49.7622 118.631 49.5373C118.575 45.6299 118.516 41.5147 115.257 38.6592L108.147 32.5375C106.195 30.3217 102.887 29.7092 100.119 31.2535L88.9382 37.7475C85.8296 39.4683 84.6569 43.4405 86.3777 46.5491C88.0985 49.6576 92.0102 50.746 95.2031 48.9647L99.0948 46.7042Z"></path> </mask> <path fill-rule="evenodd" clip-rule="evenodd" d="M99.0948 46.7042L104.345 51.2212C107.803 54.1687 115.622 53.6556 118.642 50.2097C118.638 49.9865 118.635 49.7622 118.631 49.5373C118.575 45.6299 118.516 41.5147 115.257 38.6592L108.147 32.5375C106.195 30.3217 102.887 29.7092 100.119 31.2535L88.9382 37.7475C85.8296 39.4683 84.6569 43.4405 86.3777 46.5491C88.0985 49.6576 92.0102 50.746 95.2031 48.9647L99.0948 46.7042Z" fill="#FBA993"></path> <path d="M99.0948 46.7042L98.3414 45.4071L99.2641 44.8712L100.073 45.5671L99.0948 46.7042ZM104.345 51.2212L103.372 52.3628L103.367 52.3583L104.345 51.2212ZM118.642 50.2097L120.141 50.184L120.151 50.7629L119.77 51.1984L118.642 50.2097ZM118.631 49.5373L120.131 49.5157L120.131 49.5157L118.631 49.5373ZM115.257 38.6592L116.236 37.5224L116.246 37.5311L115.257 38.6592ZM108.147 32.5375L107.169 33.6742L107.09 33.6068L107.022 33.5292L108.147 32.5375ZM100.119 31.2535L99.3652 29.9564L99.3764 29.9499L99.3878 29.9436L100.119 31.2535ZM88.9382 37.7475L89.6915 39.0446L89.6782 39.0524L89.6646 39.0599L88.9382 37.7475ZM86.3777 46.5491L87.6901 45.8226L87.6901 45.8226L86.3777 46.5491ZM95.2031 48.9647L95.9565 50.2618L95.9452 50.2683L95.9339 50.2746L95.2031 48.9647ZM100.073 45.5671L105.323 50.0841L103.367 52.3583L98.1165 47.8413L100.073 45.5671ZM105.318 50.0797C106.635 51.2018 109.001 51.7925 111.554 51.6165C114.108 51.4405 116.365 50.5311 117.513 49.2211L119.77 51.1984C117.898 53.3342 114.736 54.4043 111.761 54.6094C108.785 54.8145 105.513 54.1881 103.372 52.3627L105.318 50.0797ZM117.142 50.2354C117.138 50.0098 117.135 49.7835 117.131 49.5589L120.131 49.5157C120.134 49.741 120.138 49.9632 120.141 50.184L117.142 50.2354ZM117.131 49.5589C117.073 45.519 116.948 42.1352 114.269 39.7873L116.246 37.5311C120.084 40.8942 120.077 45.7408 120.131 49.5157L117.131 49.5589ZM114.279 39.7959L107.169 33.6742L109.126 31.4008L116.236 37.5225L114.279 39.7959ZM107.022 33.5292C105.543 31.8509 103.01 31.358 100.849 32.5634L99.3878 29.9436C102.763 28.0604 106.847 28.7926 109.273 31.5458L107.022 33.5292ZM100.872 32.5506L89.6915 39.0446L88.1848 36.4505L99.3652 29.9564L100.872 32.5506ZM89.6646 39.0599C87.2697 40.3856 86.3766 43.45 87.6901 45.8226L85.0654 47.2756C82.9372 43.4311 84.3895 38.551 88.2117 36.4352L89.6646 39.0599ZM87.6901 45.8226C88.9954 48.1808 91.9804 49.045 94.4722 47.6548L95.9339 50.2746C92.04 52.447 87.2016 51.1345 85.0654 47.2756L87.6901 45.8226ZM94.4497 47.6676L98.3414 45.4071L99.8482 48.0013L95.9565 50.2618L94.4497 47.6676Z" fill="black" mask="url(#path-11-inside-1_1646_5572)"></path> </g> <defs> <clipPath id="clip0_1646_5572"> <rect width="205" height="159" fill="white"></rect> </clipPath> </defs> </svg> 