<?xml version="1.0" encoding="UTF-8"?> <svg xmlns="http://www.w3.org/2000/svg" width="120" height="76" viewBox="0 0 120 76" fill="none"> <path d="M8.75 20C8.75 18.2051 10.2051 16.75 12 16.75H108C109.795 16.75 111.25 18.2051 111.25 20V72C111.25 73.7949 109.795 75.25 108 75.25H12C10.2051 75.25 8.75 73.7949 8.75 72V20Z" fill="#BAE6A5" stroke="black" stroke-width="1.5"></path> <path d="M75.25 46C75.25 56.7963 68.2748 65.25 60 65.25C51.7252 65.25 44.75 56.7963 44.75 46C44.75 35.2037 51.7252 26.75 60 26.75C68.2748 26.75 75.25 35.2037 75.25 46Z" stroke="black" stroke-width="1.5"></path> <path d="M10 28H26.5" stroke="black"></path> <path d="M93.5 64H110" stroke="black"></path> <path d="M4.75 12C4.75 10.2051 6.20507 8.75 8 8.75H112C113.795 8.75 115.25 10.2051 115.25 12V64C115.25 65.7949 113.795 67.25 112 67.25H8C6.20507 67.25 4.75 65.7949 4.75 64V12Z" fill="#BAE6A5" stroke="black" stroke-width="1.5"></path> <path d="M75.25 38C75.25 48.7963 68.2748 57.25 60 57.25C51.7252 57.25 44.75 48.7963 44.75 38C44.75 27.2037 51.7252 18.75 60 18.75C68.2748 18.75 75.25 27.2037 75.25 38Z" stroke="black" stroke-width="1.5"></path> <path d="M10 20H26.5" stroke="black"></path> <path d="M93.5 56H110" stroke="black"></path> <rect x="0.75" y="0.75" width="118.5" height="58.5" rx="3.25" fill="#BAE6A5" stroke="black" stroke-width="1.5"></rect> <path d="M75.25 30C75.25 40.7963 68.2748 49.25 60 49.25C51.7252 49.25 44.75 40.7963 44.75 30C44.75 19.2037 51.7252 10.75 60 10.75C68.2748 10.75 75.25 19.2037 75.25 30Z" stroke="black" stroke-width="1.5"></path> <path d="M10 48H24" stroke="black" stroke-width="1.5" stroke-linecap="round"></path> <path d="M94 12H108" stroke="black" stroke-width="1.5" stroke-linecap="round"></path> </svg> 