<?xml version="1.0" encoding="UTF-8"?> <svg xmlns="http://www.w3.org/2000/svg" width="178" height="48" viewBox="0 0 178 48" fill="none"> <g clip-path="url(#clip0_3605_10858)"> <path fill-rule="evenodd" clip-rule="evenodd" d="M109.581 16.8981C108.69 16.3381 107.674 16.0576 106.53 16.0576H106.529C104.787 16.0576 103.333 16.7051 102.171 18V10H99.1494V30.8693H102.171V22.7243C102.171 21.584 102.529 20.656 103.247 19.9413C103.963 19.2267 104.836 18.8693 105.92 18.8693C107.004 18.8693 107.856 19.2267 108.477 19.9413C109.116 20.6368 109.436 21.5648 109.436 22.7243V30.8693H112.457V22.3477C112.457 21.1691 112.206 20.1067 111.702 19.1595C111.199 18.1931 110.492 17.4389 109.581 16.8981ZM62.1398 11.3923C61.0748 10.8515 59.8259 10.5806 58.392 10.5806H52V30.8707H55.196V22.9283H58.392C59.8248 22.9283 61.0748 22.667 62.1398 22.1454C63.2058 21.6046 64.0291 20.8707 64.6097 19.9427C65.1903 18.9955 65.4812 17.9331 65.4812 16.7544C65.4812 15.5758 65.1914 14.523 64.6097 13.595C64.0281 12.6488 63.2047 11.9139 62.1398 11.3923ZM61.1817 19.0734C60.5038 19.6526 59.5639 19.9427 58.3631 19.9427H55.196V13.5374H58.3631C59.5639 13.5374 60.5038 13.836 61.1817 14.4355C61.8596 15.035 62.1986 15.8072 62.1986 16.7544C62.1986 17.7016 61.8596 18.4739 61.1817 19.0734ZM77.3192 16.7534C76.3708 16.2894 75.2566 16.058 73.9778 16.058V16.0569C72.3119 16.0569 70.9176 16.4526 69.7938 17.2452C68.6903 18.0366 68.0124 19.1193 67.7601 20.491H70.8106C71.0042 19.9694 71.3634 19.5342 71.8863 19.1865C72.4092 18.8388 73.1063 18.6649 73.9778 18.6649C74.9861 18.6649 75.7891 18.9262 76.39 19.4478C76.9899 19.9694 77.2903 20.6457 77.2903 21.4766V21.9694H72.6701C71.6051 21.9694 70.6652 22.1732 69.8515 22.5785C69.0378 22.9657 68.4091 23.5065 67.9632 24.202C67.5173 24.8974 67.2949 25.6804 67.2949 26.5497C67.2949 27.9406 67.8082 29.0617 68.8347 29.9118C69.8804 30.762 71.2073 31.1875 72.8155 31.1875C73.7447 31.1875 74.6065 31.0041 75.4009 30.6371C76.1954 30.251 76.8541 29.7582 77.3769 29.1588V30.8686H80.312V21.5353C80.312 20.4537 80.0501 19.4969 79.5272 18.666C79.0043 17.8361 78.2687 17.1982 77.3192 16.7534ZM76.128 27.5652C75.3539 28.2606 74.336 28.6084 73.0775 28.6084C72.2445 28.6084 71.5858 28.4153 71.1015 28.0292C70.6182 27.6238 70.3754 27.1118 70.3754 26.4932C70.3754 25.8361 70.6075 25.3241 71.0726 24.9572C71.557 24.5902 72.2253 24.4068 73.0775 24.4068H77.2903V24.986C77.2903 26.01 76.9032 26.8697 76.128 27.5652ZM89.7091 31.1877C88.5468 31.1877 87.5107 30.9851 86.5997 30.5787C85.709 30.1733 85.0023 29.6123 84.4783 28.8976C83.9555 28.1829 83.6742 27.3712 83.6357 26.4624H86.6286C86.6863 27.0811 86.9868 27.5931 87.5289 27.9984C88.0903 28.3845 88.827 28.5776 89.7369 28.5776C90.5111 28.5776 91.1409 28.4325 91.6252 28.1424C92.1096 27.8331 92.3512 27.3989 92.3512 26.8379C92.3512 26.2384 92.0797 25.8043 91.5375 25.5333C91.0147 25.2432 90.201 24.9733 89.0975 24.7216C88.0325 24.4699 87.16 24.2096 86.4821 23.9387C85.8234 23.6677 85.2525 23.2432 84.7681 22.6629C84.2837 22.0635 84.0421 21.2624 84.0421 20.2576C84.0421 19.4651 84.2837 18.7504 84.7681 18.1125C85.2525 17.4747 85.9111 16.9723 86.7441 16.6053C87.5963 16.2384 88.5361 16.0549 89.5626 16.0549C90.5314 16.0549 91.4317 16.2576 92.2646 16.664C93.0976 17.0501 93.7659 17.592 94.2695 18.2875C94.7731 18.9829 95.0436 19.7659 95.0832 20.6352H92.0903C92.0508 20.056 91.7803 19.5824 91.2766 19.2144C90.7923 18.8475 90.1721 18.664 89.4172 18.664C88.7393 18.664 88.1769 18.8091 87.7321 19.0992C87.3065 19.3701 87.0926 19.7467 87.0926 20.2299C87.0926 20.6352 87.2284 20.9637 87.499 21.2155C87.7898 21.4469 88.1384 21.6411 88.5447 21.7947C88.951 21.9301 89.5423 22.0944 90.3175 22.2875C91.4017 22.5392 92.2839 22.7995 92.9618 23.0704C93.6397 23.3221 94.2214 23.7467 94.7047 24.3461C95.189 24.9253 95.4307 25.7083 95.4307 26.6939C95.4307 28.0848 94.8886 29.1867 93.8033 29.9984C92.7383 30.7909 91.3718 31.1867 89.707 31.1867L89.7091 31.1877ZM122.713 16.058C123.992 16.058 125.106 16.2894 126.055 16.7534C127.004 17.1982 127.74 17.8361 128.263 18.666C128.785 19.4969 129.047 20.4537 129.047 21.5353V30.8686H126.112V29.1588C125.589 29.7582 124.931 30.251 124.136 30.6371C123.342 31.0041 122.48 31.1875 121.551 31.1875C119.943 31.1875 118.616 30.762 117.57 29.9118C116.544 29.0617 116.03 27.9406 116.03 26.5497C116.03 25.6804 116.253 24.8974 116.699 24.202C117.144 23.5065 117.773 22.9657 118.587 22.5785C119.401 22.1732 120.34 21.9694 121.405 21.9694H126.026V21.4766C126.026 20.6457 125.725 19.9694 125.125 19.4478C124.524 18.9262 123.721 18.6649 122.713 18.6649C121.842 18.6649 121.145 18.8388 120.622 19.1865C120.099 19.5342 119.74 19.9694 119.546 20.491H116.495C116.748 19.1193 117.426 18.0366 118.529 17.2452C119.653 16.4526 121.047 16.0569 122.713 16.0569V16.058ZM121.813 28.6084C123.071 28.6084 124.089 28.2606 124.863 27.5652C125.639 26.8697 126.026 26.01 126.026 24.986V24.4068H121.813C120.961 24.4068 120.292 24.5902 119.808 24.9572C119.343 25.3241 119.111 25.8361 119.111 26.4932C119.111 27.1118 119.354 27.6238 119.837 28.0292C120.321 28.4153 120.98 28.6084 121.813 28.6084ZM143.227 11.3923C142.162 10.8515 140.912 10.5806 139.479 10.5806H133.087V30.8707H136.283V22.9283H139.479C140.912 22.9283 142.162 22.667 143.227 22.1454C144.293 21.6046 145.116 20.8707 145.697 19.9427C146.277 18.9955 146.568 17.9331 146.568 16.7544C146.568 15.5758 146.278 14.523 145.697 13.595C145.115 12.6488 144.292 11.9139 143.227 11.3923ZM142.269 19.0734C141.591 19.6526 140.651 19.9427 139.45 19.9427H136.283V13.5374H139.45C140.651 13.5374 141.591 13.836 142.269 14.4355C142.947 15.035 143.285 15.8072 143.285 16.7544C143.285 17.7016 142.947 18.4739 142.269 19.0734ZM155.065 16.058C156.344 16.058 157.457 16.2894 158.406 16.7534C159.356 17.1982 160.091 17.8361 160.614 18.666C161.137 19.4969 161.399 20.4537 161.399 21.5353V30.8686H158.465V29.1588C157.942 29.7582 157.283 30.251 156.489 30.6371C155.694 31.0041 154.833 31.1875 153.902 31.1875C152.294 31.1875 150.968 30.762 149.922 29.9118C148.895 29.0617 148.382 27.9406 148.382 26.5497C148.382 25.6804 148.604 24.8974 149.05 24.202C149.496 23.5065 150.126 22.9657 150.938 22.5785C151.752 22.1732 152.692 21.9694 153.757 21.9694H158.377V21.4766C158.377 20.6457 158.077 19.9694 157.477 19.4478C156.876 18.9262 156.073 18.6649 155.065 18.6649C154.193 18.6649 153.496 18.8388 152.972 19.1865C152.449 19.5342 152.091 19.9694 151.898 20.491H148.846C149.098 19.1193 149.776 18.0366 150.88 17.2452C152.003 16.4526 153.398 16.0569 155.064 16.0569L155.065 16.058ZM154.164 28.6084C155.423 28.6084 156.44 28.2606 157.215 27.5652C157.99 26.8697 158.377 26.01 158.377 24.986V24.4068H154.164C153.312 24.4068 152.644 24.5902 152.16 24.9572C151.694 25.3241 151.462 25.8361 151.462 26.4932C151.462 27.1118 151.704 27.6238 152.188 28.0292C152.673 28.4153 153.331 28.6084 154.164 28.6084ZM175.109 16.377L170.751 26.2895H170.75L166.189 16.377H162.876L169.181 29.6815L166.043 36.6671H169.21L178.334 16.377H175.109Z" fill="#1D2331"></path> <path d="M13.3333 29.6667V36.3333C13.3333 40.0151 10.3484 43 6.66667 43C2.98489 43 0 40.0151 0 36.3333C0 32.6516 2.98489 29.6667 6.66667 29.6667H13.3333ZM26.6667 29.6667C34.0302 29.6667 40 23.6969 40 16.3333C40 8.96978 34.0302 3 26.6667 3C19.3031 3 13.3333 8.96978 13.3333 16.3333V29.6667H26.6667Z" fill="#03EDC3"></path> </g> <defs> <clipPath id="clip0_3605_10858"> <rect width="178" height="48" fill="white"></rect> </clipPath> </defs> </svg> 