<?xml version="1.0" encoding="UTF-8"?> <svg xmlns="http://www.w3.org/2000/svg" width="183" height="145" viewBox="0 0 183 145" fill="none"> <g clip-path="url(#clip0_1659_5307)"> <path d="M56.9916 59.9693C67.606 59.9693 74.7451 66.7887 74.7451 79.4104V107.826H62.2543V81.9303C62.2543 75.1995 59.3453 71.8395 53.805 71.8395C46.7658 71.8395 43.4793 76.791 43.4793 85.4893V107.826H31.0773V81.9303C31.0773 75.1995 28.0683 71.8395 22.528 71.8395C15.5775 71.8395 12.391 76.791 12.391 85.4893V107.826H0V61.0857H12.0245V68.2807C14.8447 63.3293 19.4413 59.9582 26.6693 59.9582C33.3311 59.9582 38.5051 62.7656 41.2253 68.6565C44.2231 63.3403 49.6636 59.9693 56.9916 59.9693ZM120.067 75.111C120.067 55.5704 133.868 42.3962 151.433 42.3962C168.999 42.3962 182.799 55.5816 182.799 75.111C182.799 94.6405 168.999 107.826 151.433 107.826C133.868 107.826 120.067 94.6515 120.067 75.111ZM169.653 75.111C169.653 63.053 161.949 55.4821 151.433 55.4821C140.819 55.4821 133.213 63.053 133.213 75.111C133.213 87.1691 140.819 94.7399 151.433 94.7399C161.958 94.7399 169.653 87.1691 169.653 75.111ZM61.1552 40.0199C60.8221 43.623 63.4868 46.806 67.1064 47.1265L77.8097 48.0992C81.4291 48.4307 84.6268 45.7782 84.9487 42.1751C85.2818 38.5721 82.6172 35.389 78.9976 35.0685L68.2943 34.0959C64.6859 33.7753 61.4882 36.4279 61.1552 40.0199ZM76.8103 6.59766C73.8237 8.65339 73.0908 12.7317 75.156 15.7048L83.4387 27.5861C85.504 30.5591 89.601 31.2886 92.5876 29.2328C95.5744 27.1771 96.3072 23.0987 94.242 20.1257L85.9592 8.24447C83.894 5.27139 79.7971 4.54193 76.8103 6.59766ZM114.971 0.231525C111.463 -0.718974 107.854 1.33676 106.899 4.82929L103.091 18.7553C102.136 22.2367 104.201 25.8397 107.71 26.7903C111.218 27.7408 114.827 25.685 115.782 22.1925L119.59 8.26656C120.534 4.77402 118.469 1.18202 114.971 0.231525ZM140.897 26.9782C139.376 23.6956 135.467 22.2699 132.17 23.784L122.421 28.2602C119.124 29.7743 117.692 33.6648 119.213 36.9473C120.734 40.2299 124.642 41.6557 127.94 40.1414L137.688 35.6652C140.986 34.1401 142.418 30.2497 140.897 26.9782ZM103.935 42.3962C102.092 42.3962 100.315 43.0371 98.9053 44.2198L79.2085 60.6767C76.4328 62.9977 76.0665 67.1312 78.3981 69.8943C80.7297 72.6575 84.8821 73.0221 87.658 70.7012L98.6054 61.5609V107.837H111.751V50.1881C111.751 45.8776 108.254 42.3962 103.935 42.3962Z" fill="#1D2331"></path> <path d="M3.49812 115.981V124.744C4.89088 122.972 6.80189 122.038 9.10157 122.038C13.539 122.038 16.6484 125.485 16.6484 130.479C16.6484 135.472 13.539 138.92 9.06919 138.92C6.7371 138.92 4.79371 137.985 3.49812 136.246V138.533H0V115.981H3.49812ZM13.0532 130.479C13.0532 127.418 11.1097 125.356 8.19465 125.356C5.27956 125.356 3.33616 127.386 3.33616 130.479C3.33616 133.571 5.27956 135.601 8.19465 135.601C11.1097 135.601 13.0532 133.539 13.0532 130.479Z" fill="#1D2331"></path> <path d="M19.9526 144.976L23.9364 136.31L16.9727 122.424H21.1186L25.7827 132.251L30.3173 122.424H34.0421L23.6774 144.976H19.9526Z" fill="#1D2331"></path> <path d="M45.8438 138.533V115.981H54.2975C58.8321 115.981 62.1034 119.267 62.1034 123.713C62.1034 128.191 58.8321 131.445 54.2975 131.445H49.5362V138.533H45.8438ZM49.5362 127.772H54.2975C56.6944 127.772 58.411 126.065 58.411 123.713C58.411 121.361 56.6944 119.654 54.2975 119.654H49.5362V127.772Z" fill="#1D2331"></path> <path d="M64.2651 125.904C65.1072 123.391 67.5041 122.038 71.1317 122.038C75.6663 122.038 77.9013 124.132 77.9013 128.32V138.533H74.4032V136.31C73.3018 137.953 71.4881 138.92 69.2532 138.92C65.9818 138.92 63.7793 136.826 63.7793 133.862C63.7793 131.091 65.7551 129.158 68.9617 128.868L73.4639 128.417C74.144 128.353 74.4032 128.127 74.4032 127.676V127.322C74.4032 125.969 73.2372 125.163 71.1965 125.163C68.9617 125.163 67.4717 126.097 67.083 127.676L64.2651 125.904ZM74.4032 131.091L69.7391 131.671C68.2491 131.832 67.4069 132.605 67.4069 133.765C67.4069 135.054 68.411 135.859 70.0629 135.859C72.5245 135.859 74.4032 134.152 74.4032 132.025V131.091Z" fill="#1D2331"></path> <path d="M81.2164 126.967C81.2164 123.907 83.678 122.038 87.662 122.038C90.577 122.038 92.6825 123.069 94.0751 125.002L91.7106 127.225C90.8362 125.904 89.2167 125.228 87.4028 125.228C85.7834 125.228 84.7793 125.807 84.7793 126.838C84.7793 127.934 85.8481 128.192 88.6012 128.836C91.8403 129.609 94.1075 130.543 94.1075 133.797C94.1075 137.116 91.7106 138.92 87.5324 138.92C84.2285 138.92 81.6051 137.728 80.3418 135.666L82.7387 133.378C83.678 134.828 85.3623 135.763 87.7915 135.763C89.5082 135.763 90.5446 135.183 90.5446 133.991C90.5446 132.799 89.5405 132.541 86.9494 131.961C84.1639 131.349 81.2164 130.382 81.2164 126.967Z" fill="#1D2331"></path> <path d="M100.383 115.981V124.873C101.614 122.908 103.395 122.038 105.598 122.038C109.387 122.038 111.493 124.486 111.493 128.803V138.533H107.93V129.254C107.93 126.741 106.699 125.324 104.561 125.324C101.776 125.324 100.383 127.225 100.383 130.93V138.533H96.8848V115.981H100.383Z" fill="#1D2331"></path> <path d="M115.349 125.904C116.191 123.391 118.588 122.038 122.216 122.038C126.75 122.038 128.985 124.132 128.985 128.32V138.533H125.487V136.31C124.386 137.953 122.572 138.92 120.337 138.92C117.066 138.92 114.863 136.826 114.863 133.862C114.863 131.091 116.839 129.158 120.046 128.868L124.548 128.417C125.228 128.353 125.487 128.127 125.487 127.676V127.322C125.487 125.969 124.321 125.163 122.281 125.163C120.046 125.163 118.556 126.097 118.167 127.676L115.349 125.904ZM125.487 131.091L120.823 131.671C119.333 131.832 118.491 132.605 118.491 133.765C118.491 135.054 119.495 135.859 121.147 135.859C123.609 135.859 125.487 134.152 125.487 132.025V131.091Z" fill="#1D2331"></path> <path d="M133.176 138.533V115.981H141.63C146.164 115.981 149.435 119.267 149.435 123.713C149.435 128.191 146.164 131.445 141.63 131.445H136.868V138.533H133.176ZM136.868 127.772H141.63C144.026 127.772 145.743 126.065 145.743 123.713C145.743 121.361 144.026 119.654 141.63 119.654H136.868V127.772Z" fill="#1D2331"></path> <path d="M151.599 125.904C152.441 123.391 154.838 122.038 158.466 122.038C163 122.038 165.236 124.132 165.236 128.32V138.533H161.737V136.31C160.635 137.953 158.822 138.92 156.587 138.92C153.316 138.92 151.113 136.826 151.113 133.862C151.113 131.091 153.089 129.158 156.296 128.868L160.798 128.417C161.478 128.353 161.737 128.127 161.737 127.676V127.322C161.737 125.969 160.571 125.163 158.531 125.163C156.296 125.163 154.806 126.097 154.417 127.676L151.599 125.904ZM161.737 131.091L157.073 131.671C155.583 131.832 154.741 132.605 154.741 133.765C154.741 135.054 155.745 135.859 157.397 135.859C159.859 135.859 161.737 134.152 161.737 132.025V131.091Z" fill="#1D2331"></path> <path d="M168.902 144.976L172.886 136.31L165.922 122.424H170.067L174.732 132.251L179.267 122.424H182.991L172.627 144.976H168.902Z" fill="#1D2331"></path> </g> <defs> <clipPath id="clip0_1659_5307"> <rect width="183" height="145" fill="white"></rect> </clipPath> </defs> </svg> 